PathFileType	4	(X/Y/Z)	 D:\Google Drive\Share to the world\OpenSim\ScaleTool\TRC\Walk_Mkrs2.trc
DataRate	CameraRate	NumFrames	NumMarkers	Units	OrigDataRate	OrigDataStartFrame	OrigNumFrames
100	100	12	34	m	100	470	536
Frame#	time	C7			T10			CLAV			STRN			LSHO			LELB			LWRA			LWRB			LFIN			RSHO			RELB			RWRA			RWRB			RFIN			LASI			RASI			LPSI			RPSI			LTHI			LKNE			LTIB			LANK			LHEE			LTOE			RTHI			RKNE			RTIB			RANK			RHEE			RTOE			RPINKY			LPINKY			INRKNE			INLKNE			
		X1	Y1	Z1	X2	Y2	Z2	X3	Y3	Z3	X4	Y4	Z4	X5	Y5	Z5	X6	Y6	Z6	X7	Y7	Z7	X8	Y8	Z8	X9	Y9	Z9	X10	Y10	Z10	X11	Y11	Z11	X12	Y12	Z12	X13	Y13	Z13	X14	Y14	Z14	X15	Y15	Z15	X16	Y16	Z16	X17	Y17	Z17	X18	Y18	Z18	X19	Y19	Z19	X20	Y20	Z20	X21	Y21	Z21	X22	Y22	Z22	X23	Y23	Z23	X24	Y24	Z24	X25	Y25	Z25	X26	Y26	Z26	X27	Y27	Z27	X28	Y28	Z28	X29	Y29	Z29	X30	Y30	Z30	X31	Y31	Z31	X32	Y32	Z32	X33	Y33	Z33	X34	Y34	Z34	

470	4.6900	0.148280	1.493010	0.134430	0.118740	1.244690	0.142140	0.294440	1.395390	0.155300	0.328340	1.243860	0.157820	0.236850	1.453790	-0.033610	0.361260	1.172800	-0.116300	0.570440	1.043620	-0.045320	0.541400	1.003430	-0.089120	0.620090	0.984900	-0.087250	0.198950	1.469030	0.317120	0.151260	1.158220	0.428070	0.236070	0.920130	0.418680	0.187450	0.922040	0.458930	0.217610	0.854430	0.465290	0.313660	0.973250	0.042540	0.297870	0.983170	0.306590	0.149570	1.077330	0.109590	0.145770	1.078680	0.196220	0.272280	0.673510	0.014510	0.258660	0.480420	0.036360	0.241490	0.277160	0.036210	0.256870	0.073570	0.088500	0.200510	0.087390	0.122050	0.404020	0.038120	0.156510	0.280480	0.676920	0.333900	0.304050	0.490080	0.311220	0.276820	0.313290	0.323300	0.271310	0.081090	0.280120	0.220650	0.101960	0.235660	0.425900	0.042380	0.245120	0.374940	0.032190	0.309840	0.363520	0.025220	0.066260	0.308300	0.489090	0.205800	0.243320	0.474630	0.142000	
471	4.7000	0.150600	1.492570	0.134980	0.121440	1.244180	0.142820	0.296900	1.395150	0.155740	0.331030	1.243690	0.158300	0.239050	1.453490	-0.033130	0.364120	1.172750	-0.115840	0.572950	1.043070	-0.044520	0.544000	1.003080	-0.088560	0.622650	0.984350	-0.086420	0.201400	1.468690	0.317600	0.155190	1.157730	0.428680	0.241360	0.920150	0.419010	0.192930	0.921770	0.459410	0.223510	0.854350	0.465700	0.316980	0.973140	0.042940	0.300940	0.982430	0.307210	0.152650	1.077000	0.110060	0.148930	1.078250	0.196730	0.273640	0.673260	0.014460	0.258540	0.480320	0.036290	0.241330	0.277130	0.036060	0.256830	0.073590	0.088490	0.200450	0.087390	0.122040	0.404010	0.038120	0.156520	0.280340	0.676060	0.334050	0.302530	0.488960	0.311200	0.275390	0.312210	0.322820	0.270770	0.080340	0.279450	0.220510	0.101010	0.234580	0.426310	0.041430	0.245250	0.374630	0.031840	0.310620	0.363510	0.025230	0.066260	0.307930	0.488170	0.206310	0.243100	0.474530	0.141840	
472	4.7100	0.152870	1.492130	0.135580	0.124100	1.243660	0.143510	0.299320	1.394900	0.156230	0.333680	1.243490	0.158830	0.241210	1.453140	-0.032610	0.366670	1.172500	-0.115310	0.575000	1.042020	-0.043730	0.546050	1.002260	-0.087960	0.624640	0.983220	-0.085590	0.203810	1.468310	0.318130	0.159200	1.157170	0.429300	0.246810	0.920130	0.419290	0.198570	0.921440	0.459850	0.229580	0.854240	0.466030	0.320230	0.972980	0.043380	0.303890	0.981670	0.307870	0.155700	1.076680	0.110540	0.152000	1.077830	0.197230	0.274890	0.672950	0.014360	0.258390	0.480220	0.036250	0.241170	0.277110	0.035910	0.256790	0.073600	0.088480	0.200380	0.087370	0.122030	0.403980	0.038120	0.156530	0.280060	0.675260	0.334200	0.300920	0.487890	0.311130	0.274010	0.311200	0.322330	0.270100	0.079630	0.278790	0.220150	0.100100	0.233610	0.426430	0.040690	0.245220	0.374170	0.031610	0.311120	0.363500	0.025230	0.066270	0.307390	0.487280	0.206760	0.242840	0.474410	0.141700	
473	4.7200	0.155110	1.491700	0.136230	0.126720	1.243140	0.144210	0.301700	1.394650	0.156770	0.336290	1.243300	0.159410	0.243340	1.452750	-0.032060	0.368920	1.172040	-0.114730	0.576600	1.040490	-0.042940	0.547580	1.000990	-0.087340	0.626070	0.981520	-0.084770	0.206160	1.467920	0.318710	0.163290	1.156560	0.429900	0.252410	0.920110	0.419540	0.204320	0.921080	0.460230	0.235810	0.854090	0.466270	0.323400	0.972780	0.043860	0.306730	0.980950	0.308560	0.158680	1.076370	0.111010	0.154970	1.077420	0.197720	0.276060	0.672590	0.014250	0.258210	0.480130	0.036260	0.241000	0.277090	0.035770	0.256750	0.073620	0.088470	0.200320	0.087350	0.122030	0.403960	0.038120	0.156540	0.279660	0.674530	0.334390	0.299280	0.486930	0.311050	0.272790	0.310270	0.321870	0.269500	0.078960	0.278190	0.219740	0.099260	0.232810	0.426440	0.040150	0.245050	0.373720	0.031480	0.311400	0.363480	0.025240	0.066280	0.306620	0.486420	0.207140	0.242530	0.474270	0.141600	
474	4.7300	0.157320	1.491300	0.136900	0.129310	1.242670	0.144900	0.304040	1.394420	0.157350	0.338860	1.243120	0.160030	0.245450	1.452340	-0.031490	0.370880	1.171400	-0.114090	0.577740	1.038480	-0.042140	0.548580	0.999270	-0.086700	0.626930	0.979260	-0.083970	0.208460	1.467540	0.319330	0.167420	1.155940	0.430500	0.258140	0.920100	0.419770	0.210170	0.920720	0.460560	0.242140	0.853950	0.466450	0.326480	0.972560	0.044390	0.309450	0.980300	0.309280	0.161600	1.076080	0.111460	0.157830	1.077060	0.198190	0.277140	0.672180	0.014150	0.258010	0.480030	0.036350	0.240820	0.277090	0.035670	0.256710	0.073640	0.088470	0.200250	0.087310	0.122050	0.403930	0.038120	0.156560	0.279210	0.673920	0.334600	0.297640	0.486080	0.310990	0.271810	0.309460	0.321490	0.269070	0.078360	0.277670	0.219390	0.098490	0.232200	0.426440	0.039760	0.244810	0.373360	0.031420	0.311510	0.363470	0.025250	0.066300	0.305600	0.485640	0.207440	0.242190	0.474120	0.141550	
475	4.7400	0.159500	1.490950	0.137600	0.131830	1.242240	0.145580	0.306340	1.394230	0.157970	0.341390	1.242980	0.160680	0.247550	1.451940	-0.030900	0.372570	1.170610	-0.113390	0.578430	1.036020	-0.041340	0.549060	0.997150	-0.086040	0.627220	0.976460	-0.083180	0.210690	1.467170	0.319990	0.171590	1.155320	0.431080	0.263960	0.920140	0.419980	0.216080	0.920390	0.460850	0.248570	0.853830	0.466560	0.329490	0.972330	0.044960	0.312060	0.979740	0.309990	0.164440	1.075840	0.111880	0.160580	1.076750	0.198620	0.278150	0.671730	0.014070	0.257810	0.479940	0.036510	0.240630	0.277090	0.035620	0.256660	0.073670	0.088480	0.200190	0.087270	0.122100	0.403890	0.038110	0.156580	0.278760	0.673440	0.334870	0.296070	0.485380	0.311000	0.271060	0.308770	0.321210	0.268800	0.077850	0.277260	0.219130	0.097830	0.231760	0.426460	0.039500	0.244560	0.373130	0.031410	0.311520	0.363450	0.025260	0.066330	0.304390	0.484980	0.207690	0.241830	0.473980	0.141590	
476	4.7500	0.161670	1.490650	0.138320	0.134300	1.241880	0.146230	0.308610	1.394080	0.158640	0.343860	1.242870	0.161370	0.249640	1.451550	-0.030300	0.374000	1.169690	-0.112630	0.578670	1.033120	-0.040550	0.549010	0.994630	-0.085370	0.626940	0.973140	-0.082400	0.212860	1.466850	0.320670	0.175760	1.154720	0.431630	0.269840	0.920240	0.420170	0.222040	0.920100	0.461100	0.255070	0.853780	0.466630	0.332420	0.972120	0.045570	0.314550	0.979300	0.310710	0.167220	1.075660	0.112250	0.163210	1.076510	0.199020	0.279100	0.671260	0.014040	0.257620	0.479860	0.036770	0.240430	0.277120	0.035630	0.256610	0.073710	0.088510	0.200140	0.087220	0.122180	0.403860	0.038110	0.156600	0.278400	0.673110	0.335180	0.294630	0.484840	0.311090	0.270460	0.308230	0.321080	0.268640	0.077440	0.276990	0.218930	0.097290	0.231500	0.426500	0.039330	0.244330	0.372990	0.031420	0.311500	0.363430	0.025280	0.066360	0.303060	0.484460	0.207920	0.241480	0.473850	0.141710	
477	4.7600	0.163820	1.490410	0.139050	0.136700	1.241590	0.146840	0.310860	1.393990	0.159330	0.346280	1.242810	0.162060	0.251720	1.451210	-0.029690	0.375190	1.168670	-0.111820	0.578460	1.029820	-0.039760	0.548430	0.991750	-0.084690	0.626070	0.969330	-0.081650	0.214970	1.466580	0.321370	0.179910	1.154180	0.432170	0.275770	0.920440	0.420340	0.228030	0.919890	0.461310	0.261610	0.853820	0.466660	0.335270	0.971940	0.046240	0.316910	0.978980	0.311410	0.169920	1.075530	0.112590	0.165730	1.076370	0.199370	0.280010	0.670770	0.014060	0.257470	0.479780	0.037100	0.240220	0.277170	0.035700	0.256550	0.073750	0.088560	0.200090	0.087170	0.122300	0.403820	0.038110	0.156620	0.278180	0.672920	0.335540	0.293340	0.484460	0.311290	0.269950	0.307830	0.321100	0.268540	0.077140	0.276840	0.218780	0.096880	0.231390	0.426550	0.039230	0.244160	0.372930	0.031420	0.311490	0.363410	0.025300	0.066410	0.301720	0.484080	0.208150	0.241160	0.473750	0.141930	
478	4.7700	0.165940	1.490230	0.139780	0.139030	1.241380	0.147410	0.313080	1.393950	0.160040	0.348650	1.242800	0.162770	0.253800	1.450930	-0.029070	0.376130	1.167580	-0.110950	0.577820	1.026140	-0.038980	0.547320	0.988540	-0.083990	0.624630	0.965050	-0.080920	0.217030	1.466380	0.322070	0.184030	1.153710	0.432680	0.281720	0.920740	0.420490	0.234020	0.919770	0.461470	0.268170	0.853960	0.466680	0.338030	0.971790	0.046940	0.319160	0.978790	0.312090	0.172530	1.075470	0.112900	0.168130	1.076300	0.199690	0.280910	0.670300	0.014140	0.257380	0.479710	0.037510	0.240030	0.277240	0.035830	0.256500	0.073810	0.088630	0.200050	0.087120	0.122450	0.403790	0.038110	0.156640	0.278160	0.672840	0.335930	0.292200	0.484200	0.311580	0.269440	0.307560	0.321270	0.268450	0.076930	0.276820	0.218650	0.096570	0.231420	0.426590	0.039170	0.244050	0.372900	0.031410	0.311530	0.363400	0.025320	0.066470	0.300420	0.483840	0.208420	0.240910	0.473690	0.142230	
479	4.7800	0.168050	1.490100	0.140510	0.141300	1.241240	0.147930	0.315270	1.393940	0.160760	0.350960	1.242810	0.163480	0.255880	1.450720	-0.028460	0.376860	1.166420	-0.110030	0.576730	1.022130	-0.038210	0.545690	0.985040	-0.083270	0.622590	0.960340	-0.080200	0.219050	1.466240	0.322770	0.188090	1.153310	0.433170	0.287680	0.921160	0.420630	0.240010	0.919750	0.461610	0.274740	0.854230	0.466670	0.340680	0.971670	0.047640	0.321320	0.978700	0.312740	0.175060	1.075480	0.113180	0.170430	1.076320	0.199980	0.281800	0.669840	0.014270	0.257370	0.479660	0.037970	0.239860	0.277320	0.036000	0.256440	0.073870	0.088710	0.200010	0.087100	0.122610	0.403760	0.038110	0.156660	0.278370	0.672850	0.336320	0.291200	0.484050	0.311960	0.268910	0.307400	0.321580	0.268370	0.076800	0.276910	0.218530	0.096360	0.231550	0.426620	0.039150	0.244010	0.372900	0.031390	0.311610	0.363380	0.025340	0.066520	0.299180	0.483690	0.208720	0.240740	0.473660	0.142580	
480	4.7900	0.170140	1.490010	0.141220	0.143520	1.241160	0.148410	0.317440	1.393980	0.161480	0.353210	1.242860	0.164170	0.257980	1.450580	-0.027840	0.377360	1.165230	-0.109070	0.575240	1.017830	-0.037460	0.543550	0.981290	-0.082550	0.619990	0.955230	-0.079500	0.221040	1.466170	0.323460	0.192060	1.152990	0.433650	0.293620	0.921710	0.420750	0.245970	0.919850	0.461720	0.281280	0.854620	0.466640	0.343190	0.971560	0.048330	0.323390	0.978690	0.313370	0.177500	1.075540	0.113460	0.172630	1.076400	0.200280	0.282710	0.669430	0.014450	0.257450	0.479630	0.038450	0.239730	0.277420	0.036210	0.256400	0.073930	0.088810	0.199980	0.087090	0.122770	0.403740	0.038110	0.156680	0.278790	0.672900	0.336700	0.290290	0.483970	0.312390	0.268340	0.307290	0.321970	0.268270	0.076710	0.277060	0.218400	0.096210	0.231750	0.426630	0.039140	0.244010	0.372920	0.031350	0.311730	0.363360	0.025370	0.066580	0.298030	0.483600	0.209060	0.240670	0.473670	0.142980	
481	4.8000	0.172210	1.489950	0.141920	0.145670	1.241120	0.148860	0.319580	1.394030	0.162210	0.355410	1.242920	0.164850	0.260110	1.450490	-0.027220	0.377650	1.163990	-0.108100	0.573340	1.013270	-0.036750	0.540910	0.977320	-0.081830	0.616820	0.949760	-0.078810	0.223010	1.466150	0.324130	0.195920	1.152760	0.434130	0.299530	0.922380	0.420850	0.251890	0.920040	0.461810	0.287790	0.855110	0.466580	0.345550	0.971460	0.048990	0.325390	0.978710	0.313970	0.179830	1.075660	0.113770	0.174740	1.076520	0.200600	0.283650	0.669050	0.014670	0.257620	0.479610	0.038950	0.239650	0.277530	0.036430	0.256360	0.074000	0.088910	0.199960	0.087090	0.122940	0.403720	0.038120	0.156690	0.279380	0.672980	0.337040	0.289470	0.483920	0.312830	0.267780	0.307230	0.322390	0.268170	0.076650	0.277240	0.218270	0.096100	0.231970	0.426630	0.039130	0.244020	0.372930	0.031310	0.311840	0.363340	0.025390	0.066640	0.296940	0.483530	0.209420	0.240730	0.473690	0.143380	
